<svg width="597" height="563" viewBox="0 0 597 563" fill="none" xmlns="http://www.w3.org/2000/svg">
<rect width="597" height="563" rx="281.5" fill="#47624F"/>
<path d="M212.771 280.024L230.683 260.183L240.194 269.55C300.306 328.614 360.622 364.55 431.601 382.868C441.177 355.618 442.026 325.625 433.756 296.366C422.783 257.543 397.23 223.719 359.879 198.555C327.019 176.415 297.342 171.229 265.919 165.736C248.677 162.722 230.814 159.605 211.342 153.448C175.6 142.139 138.119 108.537 137.743 108.205L117.268 89.6746L116.125 117.929C116.043 120.109 114.149 172.063 127.734 243.765C142.087 319.554 168.75 376.481 206.983 412.911C238.006 442.451 278.516 458.81 318.773 458.81C326.365 458.814 333.946 458.225 341.453 457.047C375.513 451.665 403.851 433.825 419.828 407.869C346.76 388.045 284.345 350.346 222.258 289.366L212.771 280.024Z" fill="#A8D5BA"/>
<path d="M471.613 391.162C457.873 388.956 444.565 386.189 431.609 382.842C428.942 390.426 425.628 397.745 421.706 404.71C421.102 405.775 420.473 406.831 419.836 407.869C435.592 412.126 451.546 415.537 467.637 418.088L480.553 420.166L484.52 393.231L471.613 391.162Z" fill="#A8D5BA"/>
</svg>
